<?xml version="1.0" encoding="UTF-8"?> <svg xmlns="http://www.w3.org/2000/svg" xmlns:xlink="http://www.w3.org/1999/xlink" viewBox="0 0 81.19 60.56"><defs><style>.cls-1,.cls-6{fill:none;}.cls-2{clip-path:url(#clip-path);}.cls-3{opacity:0.4;}.cls-4{clip-path:url(#clip-path-2);}.cls-5{fill:#888;}.cls-6{stroke:#888;stroke-miterlimit:10;stroke-width:1.1px;}</style><clipPath id="clip-path" transform="translate(0 0)"><rect class="cls-1" width="81.19" height="60.56"></rect></clipPath><clipPath id="clip-path-2" transform="translate(0 0)"><rect class="cls-1" x="-9" y="-7" width="99.19" height="68.56"></rect></clipPath></defs><g id="Ebene_2" data-name="Ebene 2"><g id="Ebene_1-2" data-name="Ebene 1"><g class="cls-2"><g class="cls-3"><g class="cls-4"><path class="cls-5" d="M40.6,36.23,77.05,4.63a4.08,4.08,0,0,0-2.93-1.37H7A3.76,3.76,0,0,0,4.14,4.6ZM3.26,53.49a3.81,3.81,0,0,0,3.8,3.81H74.13a3.82,3.82,0,0,0,3.81-3.81v-46L41.48,39a1.33,1.33,0,0,1-.88.33,1.37,1.37,0,0,1-.89-.33L3.26,7.45ZM7.06,60A6.53,6.53,0,0,1,.55,53.49V7.06A6.52,6.52,0,0,1,7.06.55H74.13a6.52,6.52,0,0,1,6.51,6.51V53.49A6.53,6.53,0,0,1,74.13,60Z" transform="translate(0 0)"></path><path class="cls-6" d="M40.6,36.23,77.05,4.63a4.08,4.08,0,0,0-2.93-1.37H7A3.76,3.76,0,0,0,4.14,4.6ZM3.26,53.49a3.81,3.81,0,0,0,3.8,3.81H74.13a3.82,3.82,0,0,0,3.81-3.81v-46L41.48,39a1.33,1.33,0,0,1-.88.33,1.37,1.37,0,0,1-.89-.33L3.26,7.45ZM7.06,60A6.53,6.53,0,0,1,.55,53.49V7.06A6.52,6.52,0,0,1,7.06.55H74.13a6.52,6.52,0,0,1,6.51,6.51V53.49A6.53,6.53,0,0,1,74.13,60Z" transform="translate(0 0)"></path></g></g></g></g></g></svg> 