<?xml version="1.0" encoding="UTF-8"?> <svg xmlns="http://www.w3.org/2000/svg" viewBox="0 0 25.7 25.69"><defs><style>.cls-1{fill:#888;}</style></defs><g id="Ebene_2" data-name="Ebene 2"><g id="Ebene_1-2" data-name="Ebene 1"><path class="cls-1" d="M23.29,17.67a5.64,5.64,0,0,1-5.62,5.62H8a5.63,5.63,0,0,1-5.62-5.62V8A5.62,5.62,0,0,1,8,2.41h9.64A5.63,5.63,0,0,1,23.29,8ZM17.67,0H8A8,8,0,0,0,0,8v9.64a8,8,0,0,0,8,8h9.64a8,8,0,0,0,8-8V8a8,8,0,0,0-8-8"></path><path class="cls-1" d="M12.85,16.86a4,4,0,1,1,4-4,4,4,0,0,1-4,4m0-10.44a6.43,6.43,0,1,0,6.42,6.43,6.43,6.43,0,0,0-6.42-6.43"></path><path class="cls-1" d="M20.61,5.94a.86.86,0,1,1-.86-.85.85.85,0,0,1,.86.85"></path></g></g></svg> 