<?xml version="1.0" encoding="UTF-8"?> <svg xmlns="http://www.w3.org/2000/svg" viewBox="0 0 68.39 68.4"><defs><style>.cls-1{opacity:0.4;}.cls-2{fill:#888;}.cls-3{fill:none;stroke:#888;stroke-miterlimit:10;}</style></defs><g id="Ebene_2" data-name="Ebene 2"><g id="Ebene_1-2" data-name="Ebene 1"><g class="cls-1"><path class="cls-2" d="M67.8,30.32h0A36.61,36.61,0,0,0,38,.5h-.19a1.22,1.22,0,0,0-.62.19,1.16,1.16,0,0,0-.45.73,1.1,1.1,0,0,0,.91,1.26,34.32,34.32,0,0,1,28.05,28,1.08,1.08,0,0,0,1.07.9H67a1.06,1.06,0,0,0,.69-.41,1.18,1.18,0,0,0,.19-.82M37.09,15.2h0a19.28,19.28,0,0,1,10.55,5.48A19.58,19.58,0,0,1,53.1,31.23a1.09,1.09,0,0,0,1.09.9h.2a1.11,1.11,0,0,0,.89-1.27,21.87,21.87,0,0,0-17.8-17.78H37.3a1.1,1.1,0,0,0-.91,1.73,1,1,0,0,0,.7.43M53.57,43.13a6,6,0,0,0-4.31-2,6.1,6.1,0,0,0-4.37,2l-5,5-.57-.31-.74-.39-.37-.2a10.79,10.79,0,0,1-1.5-.8A51,51,0,0,1,24.41,35.33a30.74,30.74,0,0,1-4.05-6.4l-.28-.58.47-.43c1.07-1,2.09-2,3-3l.34-.32.6-.62.62-.62a6.36,6.36,0,0,0,2-4.43,6.32,6.32,0,0,0-2-4.45l-3.9-3.9c-.45-.47-.93-.93-1.36-1.4-1-1-1.85-2-2.81-2.79a6,6,0,0,0-4.27-1.95,6.24,6.24,0,0,0-4.35,2l-5,5A9.88,9.88,0,0,0,.52,17.66,24.89,24.89,0,0,0,2.34,28.11a62,62,0,0,0,11,18.39A68,68,0,0,0,36,64.19,35.09,35.09,0,0,0,48.5,67.9h.86a10.1,10.1,0,0,0,7.8-3.32c.74-.88,1.56-1.68,2.41-2.51l.3-.24c.74-.7,1.34-1.3,2-1.85a6.49,6.49,0,0,0,2-4.45,6.22,6.22,0,0,0-2-4.38ZM60.1,58.46c-.49.51-1,1-1.48,1.48l-.33.31a39.47,39.47,0,0,0-2.77,2.87,7.79,7.79,0,0,1-6.15,2.61h-.74a32.73,32.73,0,0,1-11.7-3.49A66,66,0,0,1,15,45.12,60.19,60.19,0,0,1,4.35,27.35a21.67,21.67,0,0,1-1.62-9.51A7.48,7.48,0,0,1,5,12.94l5-5a4.11,4.11,0,0,1,2.81-1.27A3.91,3.91,0,0,1,15.56,8c.86.8,1.68,1.64,2.65,2.63l.7.74.71.72L23.52,16A3.63,3.63,0,0,1,24.3,21a4.12,4.12,0,0,1-.78.78l-.43.42c-.26.28-.55.57-.84.84-1.31,1.35-2.44,2.46-3.67,3.57A2.15,2.15,0,0,0,18,29.07a31.39,31.39,0,0,0,4.56,7.41,52.77,52.77,0,0,0,12.75,11.7c.57.35,1.15.64,1.72.94a12,12,0,0,1,1.5.8h.12a2.46,2.46,0,0,0,1,.27,2.18,2.18,0,0,0,1.6-.76l5-5a4.05,4.05,0,0,1,2.81-1.35,3.89,3.89,0,0,1,2.75,1.33l8.17,8.25a3.72,3.72,0,0,1,.62,5.23,3.64,3.64,0,0,1-.62.62"></path><path class="cls-3" d="M67.8,30.32h0A36.61,36.61,0,0,0,38,.5h-.19a1.22,1.22,0,0,0-.62.19,1.16,1.16,0,0,0-.45.73,1.1,1.1,0,0,0,.91,1.26,34.32,34.32,0,0,1,28.05,28,1.08,1.08,0,0,0,1.07.9H67a1.06,1.06,0,0,0,.69-.41,1.18,1.18,0,0,0,.19-.82M37.09,15.2h0a19.28,19.28,0,0,1,10.55,5.48A19.58,19.58,0,0,1,53.1,31.23a1.09,1.09,0,0,0,1.09.9h.2a1.11,1.11,0,0,0,.89-1.27,21.87,21.87,0,0,0-17.8-17.78H37.3a1.1,1.1,0,0,0-.91,1.73,1,1,0,0,0,.7.43M53.57,43.13a6,6,0,0,0-4.31-2,6.1,6.1,0,0,0-4.37,2l-5,5-.57-.31-.74-.39-.37-.2a10.79,10.79,0,0,1-1.5-.8A51,51,0,0,1,24.41,35.33a30.74,30.74,0,0,1-4.05-6.4l-.28-.58.47-.43c1.07-1,2.09-2,3-3l.34-.32.6-.62.62-.62a6.36,6.36,0,0,0,2-4.43,6.32,6.32,0,0,0-2-4.45l-3.9-3.9c-.45-.47-.93-.93-1.36-1.4-1-1-1.85-2-2.81-2.79a6,6,0,0,0-4.27-1.95,6.24,6.24,0,0,0-4.35,2l-5,5A9.88,9.88,0,0,0,.52,17.66,24.89,24.89,0,0,0,2.34,28.11a62,62,0,0,0,11,18.39A68,68,0,0,0,36,64.19,35.09,35.09,0,0,0,48.5,67.9h.86a10.1,10.1,0,0,0,7.8-3.32c.74-.88,1.56-1.68,2.41-2.51l.3-.24c.74-.7,1.34-1.3,2-1.85a6.49,6.49,0,0,0,2-4.45,6.22,6.22,0,0,0-2-4.38ZM60.1,58.46c-.49.51-1,1-1.48,1.48l-.33.31a39.47,39.47,0,0,0-2.77,2.87,7.79,7.79,0,0,1-6.15,2.61h-.74a32.73,32.73,0,0,1-11.7-3.49A66,66,0,0,1,15,45.12,60.19,60.19,0,0,1,4.35,27.35a21.67,21.67,0,0,1-1.62-9.51A7.48,7.48,0,0,1,5,12.94l5-5a4.11,4.11,0,0,1,2.81-1.27A3.91,3.91,0,0,1,15.56,8c.86.8,1.68,1.64,2.65,2.63l.7.74.71.72L23.52,16A3.63,3.63,0,0,1,24.3,21a4.12,4.12,0,0,1-.78.78l-.43.42c-.26.28-.55.57-.84.84-1.31,1.35-2.44,2.46-3.67,3.57A2.15,2.15,0,0,0,18,29.07a31.39,31.39,0,0,0,4.56,7.41,52.77,52.77,0,0,0,12.75,11.7c.57.35,1.15.64,1.72.94a12,12,0,0,1,1.5.8h.12a2.46,2.46,0,0,0,1,.27,2.18,2.18,0,0,0,1.6-.76l5-5a4.05,4.05,0,0,1,2.81-1.35,3.89,3.89,0,0,1,2.75,1.33l8.17,8.25a3.72,3.72,0,0,1,.62,5.23,3.64,3.64,0,0,1-.62.62"></path><path class="cls-2" d="M67.8,30.28h0A36.62,36.62,0,0,0,38,.5h-.19a1.22,1.22,0,0,0-.62.19,1.16,1.16,0,0,0-.45.73,1.1,1.1,0,0,0,.91,1.26,34.32,34.32,0,0,1,28.05,28,1.08,1.08,0,0,0,1.07.9H67a1.06,1.06,0,0,0,.69-.41,1.17,1.17,0,0,0,.11-.84M37.09,15.2h0a19.28,19.28,0,0,1,10.55,5.48A19.58,19.58,0,0,1,53.1,31.23a1.09,1.09,0,0,0,1.09.9h.2a1.11,1.11,0,0,0,.89-1.27,21.87,21.87,0,0,0-17.8-17.78H37.3a1.1,1.1,0,0,0-.91,1.73,1,1,0,0,0,.7.39M53.61,43.07a6,6,0,0,0-4.31-2,6.14,6.14,0,0,0-4.37,2l-5.09,5.11-.57-.31-.74-.39-.37-.2a10.79,10.79,0,0,1-1.5-.8A51,51,0,0,1,24.41,35.33a30.74,30.74,0,0,1-4.05-6.4l-.28-.58.47-.43c1.07-1,2.09-2,3-3l.34-.32.6-.62.62-.62a6.36,6.36,0,0,0,2-4.43,6.32,6.32,0,0,0-2-4.45l-3.9-3.9c-.45-.47-.93-.93-1.36-1.4-1-1-1.85-2-2.81-2.79a6,6,0,0,0-4.27-1.95,6.24,6.24,0,0,0-4.35,2l-5,5A9.88,9.88,0,0,0,.52,17.66,24.89,24.89,0,0,0,2.34,28.11a62,62,0,0,0,11,18.39A68,68,0,0,0,36,64.19,35.09,35.09,0,0,0,48.5,67.9h.86a10.1,10.1,0,0,0,7.8-3.32c.74-.88,1.56-1.68,2.41-2.51l.3-.24c.74-.7,1.34-1.3,2-1.85a6.49,6.49,0,0,0,2-4.45,6.22,6.22,0,0,0-2-4.38ZM60.1,58.46c-.49.51-1,1-1.48,1.48l-.33.31a39.47,39.47,0,0,0-2.77,2.87,7.79,7.79,0,0,1-6.15,2.61h-.74a32.73,32.73,0,0,1-11.7-3.49A66,66,0,0,1,15,45.12,60.19,60.19,0,0,1,4.35,27.35a21.67,21.67,0,0,1-1.62-9.51A7.48,7.48,0,0,1,5,12.94l5-5a4.11,4.11,0,0,1,2.81-1.27A3.91,3.91,0,0,1,15.56,8c.86.8,1.68,1.64,2.65,2.63l.7.74.71.72L23.52,16A3.63,3.63,0,0,1,24.3,21a4.12,4.12,0,0,1-.78.78l-.43.42c-.26.28-.55.57-.84.84-1.31,1.35-2.44,2.46-3.67,3.57A2.15,2.15,0,0,0,18,29.07a31.39,31.39,0,0,0,4.56,7.41,52.77,52.77,0,0,0,12.75,11.7c.57.35,1.15.64,1.72.94a12,12,0,0,1,1.5.8h.12a2.46,2.46,0,0,0,1,.27,2.18,2.18,0,0,0,1.6-.76l5-5a4.05,4.05,0,0,1,2.81-1.35,3.89,3.89,0,0,1,2.75,1.33l8.17,8.25a3.72,3.72,0,0,1,.59,5.23,3.64,3.64,0,0,1-.55.56"></path><path class="cls-3" d="M67.8,30.28h0A36.62,36.62,0,0,0,38,.5h-.19a1.22,1.22,0,0,0-.62.19,1.16,1.16,0,0,0-.45.73,1.1,1.1,0,0,0,.91,1.26,34.32,34.32,0,0,1,28.05,28,1.08,1.08,0,0,0,1.07.9H67a1.06,1.06,0,0,0,.69-.41A1.17,1.17,0,0,0,67.8,30.28ZM37.09,15.2h0a19.28,19.28,0,0,1,10.55,5.48A19.58,19.58,0,0,1,53.1,31.23a1.09,1.09,0,0,0,1.09.9h.2a1.11,1.11,0,0,0,.89-1.27,21.87,21.87,0,0,0-17.8-17.78H37.3a1.1,1.1,0,0,0-.91,1.73A1,1,0,0,0,37.09,15.2ZM53.61,43.07a6,6,0,0,0-4.31-2,6.14,6.14,0,0,0-4.37,2l-5.09,5.11-.57-.31-.74-.39-.37-.2a10.79,10.79,0,0,1-1.5-.8A51,51,0,0,1,24.41,35.33a30.74,30.74,0,0,1-4.05-6.4l-.28-.58.47-.43c1.07-1,2.09-2,3-3l.34-.32.6-.62.62-.62a6.36,6.36,0,0,0,2-4.43,6.32,6.32,0,0,0-2-4.45l-3.9-3.9c-.45-.47-.93-.93-1.36-1.4-1-1-1.85-2-2.81-2.79a6,6,0,0,0-4.27-1.95,6.24,6.24,0,0,0-4.35,2l-5,5A9.88,9.88,0,0,0,.52,17.66,24.89,24.89,0,0,0,2.34,28.11a62,62,0,0,0,11,18.39A68,68,0,0,0,36,64.19,35.09,35.09,0,0,0,48.5,67.9h.86a10.1,10.1,0,0,0,7.8-3.32c.74-.88,1.56-1.68,2.41-2.51l.3-.24c.74-.7,1.34-1.3,2-1.85a6.49,6.49,0,0,0,2-4.45,6.22,6.22,0,0,0-2-4.38ZM60.1,58.46c-.49.51-1,1-1.48,1.48l-.33.31a39.47,39.47,0,0,0-2.77,2.87,7.79,7.79,0,0,1-6.15,2.61h-.74a32.73,32.73,0,0,1-11.7-3.49A66,66,0,0,1,15,45.12,60.19,60.19,0,0,1,4.35,27.35a21.67,21.67,0,0,1-1.62-9.51A7.48,7.48,0,0,1,5,12.94l5-5a4.11,4.11,0,0,1,2.81-1.27A3.91,3.91,0,0,1,15.56,8c.86.8,1.68,1.64,2.65,2.63l.7.74.71.72L23.52,16A3.63,3.63,0,0,1,24.3,21a4.12,4.12,0,0,1-.78.78l-.43.42c-.26.28-.55.57-.84.84-1.31,1.35-2.44,2.46-3.67,3.57A2.15,2.15,0,0,0,18,29.07a31.39,31.39,0,0,0,4.56,7.41,52.77,52.77,0,0,0,12.75,11.7c.57.35,1.15.64,1.72.94a12,12,0,0,1,1.5.8h.12a2.46,2.46,0,0,0,1,.27,2.18,2.18,0,0,0,1.6-.76l5-5a4.05,4.05,0,0,1,2.81-1.35,3.89,3.89,0,0,1,2.75,1.33l8.17,8.25a3.72,3.72,0,0,1,.59,5.23A3.64,3.64,0,0,1,60.1,58.46Z"></path></g></g></g></svg> 