<?xml version="1.0" encoding="UTF-8"?> <svg xmlns="http://www.w3.org/2000/svg" viewBox="0 0 28.62 20.04"><defs><style>.cls-1{fill:#888;}</style></defs><g id="Ebene_2" data-name="Ebene 2"><g id="Ebene_1-2" data-name="Ebene 1"><path class="cls-1" d="M11.46,14.31V5.73L18.91,10ZM28,3.13A3.6,3.6,0,0,0,25.51.61C23.27,0,14.31,0,14.31,0s-9,0-11.2.59A3.66,3.66,0,0,0,.59,3.13,37.8,37.8,0,0,0,0,10,37.59,37.59,0,0,0,.59,16.9a3.58,3.58,0,0,0,2.52,2.52c2.27.62,11.2.62,11.2.62s9,0,11.2-.59A3.6,3.6,0,0,0,28,16.92,37.71,37.71,0,0,0,28.62,10,36.17,36.17,0,0,0,28,3.13"></path></g></g></svg> 